<svg width="202" height="265" viewBox="0 0 202 265" fill="none" xmlns="http://www.w3.org/2000/svg">
<g clip-path="url(#clip0_342_29183)">
<path d="M139.093 13.3098C132.538 9.40584 128.635 6.90184 125.615 5.28084C122.596 3.66084 116.777 1.34484 114.052 1.03084C111.327 0.714838 102.489 2.92384 92.1038 4.98684C81.7198 7.04884 21.2538 18.9798 18.0858 19.5688C14.9188 20.1588 15.1398 21.1888 12.2678 23.1048C9.39477 25.0198 7.48077 26.2708 6.15477 27.8918C4.82877 29.5118 4.01877 30.9118 3.20877 33.5618C2.39877 36.2138 1.27877 40.8828 1.07277 41.8388C0.865772 42.7938 1.67277 43.1128 2.23377 43.4318C2.54977 43.6198 2.92077 43.6928 3.28377 43.6378C2.71453 46.0253 2.43982 48.4736 2.46577 50.9278C2.50777 55.0078 2.38177 74.2718 2.38177 80.4538V205.798C2.38177 208.153 3.05477 211.77 3.47577 214.084C2.50777 214.084 2.00377 214 1.54077 214.378C1.07777 214.757 0.916772 214.799 1.03977 215.977C1.16277 217.154 2.54977 224.515 3.30777 226.576C4.06477 228.637 4.69577 230.109 6.71477 231.666C8.73377 233.222 12.7478 236.284 14.3208 237.147C15.8938 238.009 18.1768 239.176 31.3188 242.576C44.4608 245.976 77.0088 254.295 82.0918 255.738C87.1758 257.18 103.184 261.622 107.031 262.539C110.878 263.456 115.018 264.025 119.961 262.074C124.905 260.122 127.019 259.082 132.678 255.927C138.337 252.772 145.265 248.934 147.184 247.763C148.14 247.181 149.094 246.595 150.046 246.007L158.252 244.523C158.252 244.523 167.299 246.803 171.716 247.871C176.132 248.94 181.688 250.792 184.965 248.655C188.06 246.556 191.032 244.28 193.866 241.839C196.184 239.895 196.632 239.746 197.044 239.26C197.455 238.774 199.062 235.858 199.66 234.811C200.259 233.764 200.408 233.465 199.997 233.129C199.734 232.883 199.488 232.62 199.262 232.34C199.034 232.127 198.959 231.9 198.488 232.188C198.018 232.476 195.061 234.281 194.257 234.872C193.331 235.625 192.515 236.503 191.831 237.481C191.224 238.345 190.602 239.316 190.602 239.316H187.296C187.296 239.316 194.363 233.462 195 232.977C195.637 232.491 196.001 232.082 196.562 230.444C197.123 228.806 198.17 225.652 198.261 224.438C198.822 223.225 199.171 222.376 199.171 220.146V42.0178C199.194 41.1619 199.095 40.3071 198.878 39.4788C198.631 38.511 198.377 37.545 198.117 36.5808C197.948 35.9668 197.62 35.9048 197.353 34.7868C197.116 33.8129 196.83 32.8516 196.495 31.9068C196.369 31.6088 195.473 30.7748 194.97 30.3818C195.74 30.8218 198.178 32.0168 198.854 32.3948C199.531 32.7718 199.735 32.8348 200.128 32.4108C200.521 31.9858 200.679 31.8438 200.867 31.6398C201.056 31.4358 201.103 31.0738 200.6 30.1138C200.097 29.1548 198.839 26.5128 198.445 25.6478C198.07 24.7797 197.474 24.0257 196.715 23.4618C195.74 22.6438 191.321 19.1218 189.638 17.8158C187.956 16.5108 186.446 15.0318 184.731 14.2458C182.686 13.3234 180.406 13.0595 178.205 13.4908C175.484 13.9468 158.11 16.7568 158.11 16.7568L139.093 13.3088V13.3098Z" stroke="#002E69" stroke-width="2" stroke-miterlimit="10"/>
<path d="M150.046 246.008C150.173 245.735 150.239 245.437 150.239 245.136C150.239 244.835 150.173 244.537 150.046 244.264C149.613 243.311 149.954 243.243 147.535 242.868C145.607 242.575 143.66 242.438 141.711 242.459C140.791 242.493 140.007 242.834 138.1 243.719C136.192 244.605 126.961 249.272 123.555 250.771C120.149 252.269 116.061 253.87 112.382 254.381C108.703 254.892 104.684 254.79 99.4376 253.427C94.1916 252.065 90.9146 250.995 90.9146 250.995M8.76256 220.686C8.76256 220.686 6.64056 219.961 6.05756 218.989C5.67097 218.33 5.32466 217.649 5.02056 216.948C5.02056 216.948 3.74656 215.574 3.47656 214.082M12.8056 231.16L15.1916 224.963L8.76156 220.688C8.76156 220.688 11.3806 228.94 12.8056 231.16ZM25.5886 228.23L23.4066 234.159L90.9166 250.994C92.5057 250.656 93.9916 249.945 95.2516 248.919C96.5364 247.802 97.8026 246.663 99.0496 245.504L25.5886 228.23ZM186.31 23.508L194.974 30.381C193.976 29.279 193.073 28.0944 192.275 26.84C191.069 24.904 190.213 23.508 190.213 23.508H186.31V23.508ZM99.2346 17.493L25.9266 30.255C25.9266 30.255 23.8366 25.185 24.0926 24.778C24.6276 24.676 89.4276 12.705 90.5226 12.526C91.6186 12.348 92.2556 12.297 93.6566 13.036C95.0566 13.774 97.3246 15.532 99.2346 17.493V17.493ZM13.1726 27.402L8.98156 37.25C8.98156 37.25 12.8996 35.166 15.4546 33.008C14.1146 29.636 13.1726 27.403 13.1726 27.403V27.402Z" stroke="#002E69" stroke-width="2" stroke-miterlimit="10"/>
<path d="M5.02016 216.949L5.95316 217.386C6.16218 217.74 6.44093 218.048 6.77251 218.291C7.10409 218.535 7.48159 218.708 7.88216 218.801C9.28816 219.163 117.564 243.349 120.377 244.032C123.189 244.715 125.037 244.916 127.689 243.751C130.341 242.586 141.912 236.961 145.126 235.153C148.34 233.345 150.956 232.165 150.956 223.496V182.391C150.956 182.391 152.87 179.886 153.357 179.138C153.843 178.389 154.218 177.978 154.218 173.224V92.141C154.218 89.403 154.141 88.654 152.844 87.014C152.235 86.2188 151.586 85.4551 150.899 84.726V43.986C150.899 38.78 151.437 34.451 145.592 31.129C139.746 27.808 131.692 23.609 129.742 22.701C127.791 21.794 125.297 20.417 119.809 21.333C114.322 22.248 10.9692 38.762 8.98116 39.171C6.99216 39.58 7.09816 39.241 6.19916 40.346C5.27416 40.706 3.72916 41.392 3.28516 43.638" stroke="#002E69" stroke-width="2" stroke-miterlimit="10"/>
<path d="M126.095 21.332C125.398 21.8778 124.838 22.5797 124.462 23.3811C124.086 24.1825 123.903 25.061 123.929 25.946V239.828C123.991 241.448 124.359 243.041 125.012 244.524M90.5195 12.523C98.9895 10.882 106.471 8.51599 114.017 10.882C121.563 13.248 132.242 19.348 135.759 21.03C139.276 22.712 140.328 23.614 141.438 23.824C142.548 24.034 145.039 23.914 147.29 23.674C149.54 23.434 150.05 23.224 150.29 22.474C150.53 21.724 151.101 20.703 149.45 19.713C147.8 18.723 139.091 13.308 139.091 13.308M158.113 16.758C158.113 16.758 179.83 20.444 181.472 20.738C183.114 21.03 184.588 22.133 186.308 23.51" stroke="#002E69" stroke-width="2" stroke-miterlimit="10"/>
<path d="M190.209 23.5099C188.584 20.7899 186.672 17.2469 184.155 16.0809C181.638 14.9159 179.261 14.6829 175.672 15.2889C172.082 15.8949 161.894 17.4009 161.894 17.4009M150.163 22.7769C152.608 24.2679 158.516 28.1769 160.044 29.2069C161.573 30.2349 164.923 32.8799 164.923 41.3149V225.767C164.923 231.78 162.168 235.84 158.935 237.694C155.703 239.547 149.281 243.224 149.281 243.224M158.25 244.524L182.585 239.957C182.585 239.957 181.387 241.392 180.403 242.45C179.418 243.508 178.477 243.621 176.552 243.222C174.626 242.824 171.415 242.053 171.415 242.053" stroke="#002E69" stroke-width="2" stroke-miterlimit="10"/>
<path d="M187.299 239.316C187.299 239.316 184.652 241.538 183.387 242.451C182.121 243.364 180.202 243.761 178.102 243.433" stroke="#002E69" stroke-width="2" stroke-miterlimit="10"/>
<path d="M190.603 239.316C188.093 242.79 185.276 247.639 182.044 247.962C178.812 248.285 176.872 248.147 173.224 247.177C169.576 246.207 160.402 244.121 160.402 244.121M150.445 22.0349C152.382 23.0769 154.506 24.1699 157.411 24.6389C160.316 25.1069 182.681 28.8239 184.556 29.1049C186.43 29.3869 187.558 28.8869 186.307 27.0749C184.888 25.0121 183.472 22.9467 182.06 20.8789M174.644 131.141V134.992C174.642 135.287 174.716 135.579 174.858 135.838C175.001 136.097 175.207 136.315 175.457 136.472L178.272 138.192C178.541 138.362 178.854 138.452 179.172 138.45C179.49 138.448 179.801 138.354 180.068 138.181L182.788 136.37C183.027 136.211 183.223 135.995 183.358 135.742C183.494 135.489 183.565 135.207 183.564 134.92V131.213C183.565 130.926 183.495 130.643 183.359 130.39C183.224 130.137 183.028 129.921 182.788 129.763L180.068 127.952C179.801 127.779 179.49 127.686 179.172 127.684C178.854 127.682 178.542 127.771 178.272 127.941L175.457 129.661C175.207 129.818 175 130.036 174.858 130.295C174.716 130.554 174.642 130.845 174.644 131.141V131.141Z" stroke="#002E69" stroke-width="2" stroke-miterlimit="10"/>
</g>
<defs>
<clipPath id="clip0_342_29183">
<rect width="202" height="265" fill="white"/>
</clipPath>
</defs>
</svg>
