<svg width="2rem" height="2rem" viewBox="0 0 35 35" fill="none" xmlns="http://www.w3.org/2000/svg">
<path d="M26.5269 25.8853H10.9957C9.55191 25.8853 8.16649 25.2728 7.18941 24.2082C6.21233 23.1436 5.7165 21.7144 5.83317 20.2707L7.04359 5.74567C7.08734 5.29359 6.92691 4.8561 6.62066 4.52068C6.31441 4.18526 5.8915 4.01025 5.43941 4.01025H2.9165C2.31859 4.01025 1.82275 3.51442 1.82275 2.9165C1.82275 2.31859 2.31859 1.82275 2.9165 1.82275H5.45401C6.5186 1.82275 7.52483 2.27483 8.23941 3.04775C8.63316 3.48525 8.92483 3.99568 9.08525 4.56443H27.2998C28.7728 4.56443 30.129 5.14775 31.1207 6.19775C32.0977 7.26234 32.5936 8.64776 32.4769 10.1207L31.6894 21.0582C31.529 23.7269 29.1957 25.8853 26.5269 25.8853ZM9.15817 6.73733L8.02067 20.4457C7.94775 21.2915 8.22484 22.0936 8.79359 22.7207C9.36234 23.3477 10.1498 23.6832 10.9957 23.6832H26.5269C28.0436 23.6832 29.4144 22.3998 29.5311 20.8832L30.3186 9.94568C30.3769 9.08526 30.0998 8.2686 29.5311 7.67068C28.9623 7.05819 28.1748 6.72273 27.3144 6.72273H9.15817V6.73733Z" fill="#002E69"/>
<path d="M23.6979 33.1771C22.0938 33.1771 20.7812 31.8646 20.7812 30.2604C20.7812 28.6562 22.0938 27.3438 23.6979 27.3438C25.3021 27.3438 26.6146 28.6562 26.6146 30.2604C26.6146 31.8646 25.3021 33.1771 23.6979 33.1771ZM23.6979 29.5312C23.2896 29.5312 22.9688 29.8521 22.9688 30.2604C22.9688 30.6687 23.2896 30.9896 23.6979 30.9896C24.1063 30.9896 24.4271 30.6687 24.4271 30.2604C24.4271 29.8521 24.1063 29.5312 23.6979 29.5312Z" fill="#002E69"/>
<path d="M12.0314 33.1771C10.4272 33.1771 9.11475 31.8646 9.11475 30.2604C9.11475 28.6562 10.4272 27.3438 12.0314 27.3438C13.6356 27.3438 14.9481 28.6562 14.9481 30.2604C14.9481 31.8646 13.6356 33.1771 12.0314 33.1771ZM12.0314 29.5312C11.6231 29.5312 11.3022 29.8521 11.3022 30.2604C11.3022 30.6687 11.6231 30.9896 12.0314 30.9896C12.4397 30.9896 12.7606 30.6687 12.7606 30.2604C12.7606 29.8521 12.4397 29.5312 12.0314 29.5312Z" fill="#002E69"/>
<path d="M30.625 12.7603H13.125C12.5271 12.7603 12.0312 12.2644 12.0312 11.6665C12.0312 11.0686 12.5271 10.5728 13.125 10.5728H30.625C31.2229 10.5728 31.7188 11.0686 31.7188 11.6665C31.7188 12.2644 31.2229 12.7603 30.625 12.7603Z" fill="#002E69"/>
</svg>
