<svg  width="2rem" height="2rem" viewBox="0 0 33 29" fill="none" xmlns="http://www.w3.org/2000/svg">
<path d="M16.4998 28.5731C16.0478 28.5731 15.6103 28.5147 15.2457 28.3835C9.67484 26.4731 0.822754 19.6918 0.822754 9.67308C0.822754 4.56891 4.94984 0.427246 10.0248 0.427246C12.4894 0.427246 14.7936 1.38975 16.4998 3.11058C18.2061 1.38975 20.5103 0.427246 22.9748 0.427246C28.0498 0.427246 32.1769 4.5835 32.1769 9.67308C32.1769 19.7064 23.3248 26.4731 17.754 28.3835C17.3894 28.5147 16.9519 28.5731 16.4998 28.5731ZM10.0248 2.61475C6.16025 2.61475 3.01025 5.77933 3.01025 9.67308C3.01025 19.6335 12.5915 25.1752 15.9603 26.3272C16.2228 26.4147 16.7915 26.4147 17.054 26.3272C20.4082 25.1752 30.004 19.6481 30.004 9.67308C30.004 5.77933 26.854 2.61475 22.9894 2.61475C20.7728 2.61475 18.7165 3.65016 17.3894 5.44391C16.9811 5.99808 16.0478 5.99808 15.6394 5.44391C14.2832 3.63558 12.2415 2.61475 10.0248 2.61475Z" fill="#002E69"/>
</svg>
